<?xml version="1.0" encoding="UTF-8" standalone="no"?>
<!DOCTYPE svg PUBLIC "-//W3C//DTD SVG 1.1//EN" "http://www.w3.org/Graphics/SVG/1.1/DTD/svg11.dtd">
<svg width="815.00" height="815.00" viewBox="0.00 0.00 815.00 815.00" xmlns="http://www.w3.org/2000/svg" xmlns:xlink="http://www.w3.org/1999/xlink">
<g stroke-linecap="round" id="Layer_4_2">
<path d="M516.68,140.50 C519.69,141.42 527.41,143.86 530.50,145.50 C533.98,147.40 539.77,152.65 541.53,155.55 C543.17,158.36 544.92,166.06 545.04,168.48 C545.15,171.43 543.62,177.53 542.01,180.50 C539.99,184.16 537.00,188.17 533.83,191.80 C530.96,195.05 526.35,198.90 522.29,201.08 C517.36,203.69 502.68,208.31 493.25,210.72 C487.47,212.14 475.29,214.39 467.14,215.51 C434.59,218.93 392.05,223.76 389.31,224.31 C378.67,226.50 371.70,230.58 368.27,232.54" fill="none" stroke="rgb(0, 0, 0)" stroke-width="20.00" stroke-opacity="1.00" stroke-linejoin="round"/>
<path d="M329.50,228.50 C329.50,228.50 329.48,228.73 329.48,228.73" fill="none" stroke="rgb(0, 0, 0)" stroke-width="24.80" stroke-opacity="1.00" stroke-linejoin="round"/>
<path d="M458.13,247.29 C459.41,246.75 462.40,245.64 463.98,245.18 C467.43,244.20 483.80,241.94 491.19,242.04 C495.51,242.13 502.49,243.12 507.50,244.50 C513.51,246.19 529.11,252.76 536.18,255.95 C543.56,259.46 560.58,268.19 563.50,269.50 C570.07,272.42 583.73,275.30 589.17,275.19 C595.31,275.01 608.05,270.20 620.26,264.88 C621.00,264.56 621.75,264.24 622.49,263.91" fill="none" stroke="rgb(0, 0, 0)" stroke-width="20.00" stroke-opacity="1.00" stroke-linejoin="round"/>
<path d="M433.50,284.50 C431.89,286.33 426.65,292.27 425.50,293.50 C419.98,299.41 410.97,306.87 404.09,311.21 C397.19,315.52 384.57,321.12 376.75,323.51 C368.52,326.02 357.12,328.28 348.73,328.63 C342.08,328.86 329.46,328.92 322.47,328.00 C314.27,326.90 274.27,319.56 259.85,316.85 C264.97,309.13 270.83,301.38 275.85,295.76 C280.30,290.81 293.69,278.37 298.50,274.69 C304.19,270.38 317.24,264.02 325.50,261.50 C329.89,260.18 346.98,256.38 354.62,255.41 C361.57,254.55 378.43,253.84 386.50,253.77 C394.64,253.86 412.06,254.48 417.25,255.04 C423.09,255.68 438.65,259.56 443.31,261.59 C446.48,262.99 470.38,274.89 471.50,275.50 C473.03,276.34 475.72,277.93 476.87,278.64" fill="none" stroke="rgb(0, 0, 0)" stroke-width="20.70" stroke-opacity="1.00" stroke-linejoin="round"/>
<path d="M496.50,266.50 C498.89,267.25 504.72,269.17 508.50,271.50 C512.73,274.15 521.55,282.26 528.85,290.02 C533.76,295.51 544.19,307.63 548.50,311.50 C551.98,314.59 557.26,317.99 560.14,319.01 C566.01,321.00 575.64,320.82 587.00,320.00" fill="none" stroke="rgb(0, 0, 0)" stroke-width="20.00" stroke-opacity="1.00" stroke-linejoin="round"/>
<path d="M330.91,292.85 C333.07,291.32 339.16,287.03 341.78,285.64 C347.67,282.57 357.64,281.83 359.12,281.71" fill="none" stroke="rgb(0, 0, 0)" stroke-width="20.00" stroke-opacity="1.00" stroke-linejoin="round"/>
<path d="M466.50,291.50 C474.90,297.57 484.04,305.91 488.17,311.89 C491.92,317.37 498.41,331.93 500.50,337.50 C503.48,345.52 505.90,357.05 506.48,365.16 C507.04,373.36 505.90,386.03 503.87,393.54 C502.98,396.77 500.51,403.70 498.78,407.13 C496.93,410.72 492.58,417.42 490.07,420.51 C485.90,425.62 474.14,435.00 467.50,438.50 C462.05,441.34 442.59,448.53 439.50,449.50 C431.29,452.05 417.44,454.76 410.76,454.86 C404.13,454.93 371.05,452.37 353.12,450.24 C338.31,448.37 309.54,445.25 295.16,444.29 C279.50,443.50 244.59,442.83 235.43,443.43 C227.06,443.98 213.67,445.87 204.37,447.55 C196.48,449.19 180.90,453.05 173.65,455.15 C164.87,457.90 151.01,463.47 144.09,467.17 C140.86,468.91 123.29,479.58 119.78,482.23 C113.94,486.68 104.11,496.66 99.73,502.29 C97.76,504.92 93.33,510.93 91.93,513.59 C90.17,517.03 87.52,525.03 86.80,528.74 C85.46,535.94 84.19,552.45 84.33,560.58 C84.42,564.60 85.06,572.75 85.50,575.50 C86.20,579.75 88.50,587.93 89.95,591.33 C92.04,596.19 100.59,610.46 104.57,615.22 C106.98,618.08 111.76,622.65 114.61,624.83 C119.38,628.43 134.74,635.02 140.50,636.50 C146.56,638.03 161.02,638.90 167.74,638.19 C175.54,637.33 191.07,633.22 196.50,630.50 C198.98,629.24 205.31,625.06 208.13,622.83 C211.30,620.30 215.65,615.90 217.87,612.85 C219.69,610.31 223.35,603.78 224.72,600.34 C227.64,592.87 230.52,578.43 231.25,570.39 C231.56,566.81 231.56,559.36 231.04,555.71 C230.51,552.17 228.90,546.55 227.43,542.09 C226.38,538.98 223.65,533.61 221.80,531.38 C219.83,529.06 213.28,523.70 211.39,522.43 C208.09,520.26 201.70,517.95 197.75,517.33 C194.01,516.77 186.65,516.87 183.32,517.57 C179.96,518.31 173.68,521.03 170.03,523.18 C166.39,525.37 161.93,528.90 160.08,531.43 C158.29,533.96 155.69,539.80 155.41,542.57 C155.12,545.86 157.79,554.58 159.38,557.46 C160.38,559.20 162.65,561.78 164.08,562.80 C166.33,564.34 173.49,566.61 176.90,567.11 C180.68,567.63 187.37,567.33 190.58,565.81 C191.38,565.43 194.47,563.46 195.60,562.76" fill="none" stroke="rgb(0, 0, 0)" stroke-width="20.00" stroke-opacity="1.00" stroke-linejoin="round"/>
<path d="M444.50,299.85 C444.28,303.06 443.63,311.37 442.66,314.83 C441.59,318.54 437.43,325.99 435.50,328.50 C433.00,331.69 427.35,335.96 423.66,338.03 C419.32,340.42 412.87,343.49 409.79,344.50 C404.30,346.26 396.17,346.29 389.00,346.00" fill="none" stroke="rgb(0, 0, 0)" stroke-width="20.00" stroke-opacity="1.00" stroke-linejoin="round"/>
<path d="M463.48,316.37 C463.88,322.14 463.90,327.06 463.21,330.91 C462.41,335.12 460.62,340.94 458.97,343.85 C457.31,346.71 452.97,351.29 450.14,353.33 C445.65,356.47 435.99,359.10 434.57,359.50" fill="none" stroke="rgb(0, 0, 0)" stroke-width="20.00" stroke-opacity="1.00" stroke-linejoin="round"/>
<path d="M319.50,569.50 C322.68,573.12 325.55,575.75 329.00,576.61 C332.53,577.42 339.09,576.69 342.68,575.08 C345.73,573.66 351.02,569.62 352.42,567.58 C353.84,565.42 355.34,559.24 355.04,556.23 C354.84,554.58 354.03,551.62 353.42,550.50 C352.12,548.26 346.84,544.49 343.98,543.48 C340.78,542.39 334.86,541.41 331.34,541.44 C327.15,541.52 320.38,542.36 316.50,543.50 C313.57,544.39 306.19,547.67 302.69,549.63 C298.96,551.74 293.22,555.90 290.43,558.64 C287.99,561.08 283.38,567.03 281.69,570.12 C280.12,573.02 277.10,580.43 276.50,582.50 C275.65,585.51 274.67,593.04 274.50,595.77 C274.31,599.18 274.47,606.44 275.50,610.50 C276.08,612.72 279.21,620.45 280.72,623.15 C282.59,626.42 287.05,631.20 290.08,632.85 C291.15,633.43 298.96,636.73 302.05,637.65 C305.19,638.56 310.75,638.43 315.62,637.63 C323.04,636.35 336.00,631.15 341.22,627.86 C345.14,625.37 358.04,614.93 363.59,610.37 C370.24,604.92 381.11,598.05 388.47,594.74 C391.80,593.26 399.90,590.59 402.97,589.97 C406.91,589.21 413.77,589.43 417.76,590.29 C421.51,591.13 428.45,593.80 431.40,595.58 C435.78,598.28 447.40,610.18 452.14,614.41 C455.15,617.07 460.04,620.72 462.82,622.29 C465.60,623.83 472.07,626.35 475.44,627.21 C479.19,628.13 485.84,628.86 490.15,628.83 C498.27,628.73 512.86,626.19 519.83,623.37 C523.69,621.79 542.30,613.12 548.50,611.50 C551.54,610.73 558.22,609.84 561.38,609.79 C567.78,609.73 582.64,612.77 590.43,615.12 C592.79,615.83 613.88,622.20 621.61,623.83 C629.49,625.47 644.39,626.99 651.16,626.89 C659.65,626.72 675.47,622.56 680.86,622.33 C684.96,622.19 694.02,624.15 694.87,624.32 C698.18,624.97 705.82,625.09 709.78,624.55 C716.51,623.61 728.92,620.32 734.55,618.13" fill="none" stroke="rgb(0, 0, 0)" stroke-width="20.00" stroke-opacity="1.00" stroke-linejoin="round"/>
<path d="M618.00,39.00 C646.88,38.98 712.88,38.92 750.02,38.89 C756.24,38.89 766.27,38.88 770.07,38.87 C770.06,67.88 770.03,135.06 770.01,173.23 C770.01,179.83 770.00,191.71 770.00,197.00" fill="none" stroke="rgb(0, 0, 0)" stroke-width="20.00" stroke-opacity="1.00" stroke-linejoin="round"/>
<path d="M43.00,626.00 C42.99,655.91 42.96,721.13 42.94,756.44 C42.94,759.28 42.94,764.59 42.93,767.07 C72.54,767.05 138.24,767.02 174.32,767.01 C179.97,767.00 186.81,767.00 188.00,767.00" fill="none" stroke="rgb(0, 0, 0)" stroke-width="20.00" stroke-opacity="1.00" stroke-linejoin="round"/>
</g>
</svg>
