<?xml version="1.0" encoding="UTF-8" standalone="no"?>
<svg
   width="815.00"
   height="815.00"
   viewBox="0.00 0.00 815.00 815.00"
   version="1.1"
   id="svg12"
   sodipodi:docname="Draconic Symbol Vector (Framed).svg"
   inkscape:version="1.4 (86a8ad7, 2024-10-11)"
   xmlns:inkscape="http://www.inkscape.org/namespaces/inkscape"
   xmlns:sodipodi="http://sodipodi.sourceforge.net/DTD/sodipodi-0.dtd"
   xmlns="http://www.w3.org/2000/svg"
   xmlns:svg="http://www.w3.org/2000/svg">
  <defs
     id="defs12">
    <inkscape:path-effect
       effect="taper_stroke"
       start_shape="center | center"
       end_shape="center | center"
       id="path-effect20"
       is_visible="true"
       lpeversion="1"
       stroke_width="12"
       subpath="1"
       attach_start="3.7010487"
       end_offset="2.490682"
       start_smoothing="0.5"
       end_smoothing="0.5"
       jointype="extrapolated"
       miter_limit="100" />
    <inkscape:path-effect
       effect="taper_stroke"
       start_shape="center | center"
       end_shape="center | center"
       id="path-effect19"
       is_visible="true"
       lpeversion="1"
       stroke_width="12"
       subpath="1"
       attach_start="2.9273575"
       end_offset="4.1449404"
       start_smoothing="0.5"
       end_smoothing="0.5"
       jointype="extrapolated"
       miter_limit="100" />
    <inkscape:path-effect
       effect="taper_stroke"
       start_shape="center | center"
       end_shape="center | center"
       id="path-effect18"
       is_visible="true"
       lpeversion="1"
       stroke_width="12"
       subpath="1"
       attach_start="2.2208836"
       end_offset="1.955981"
       start_smoothing="0.5"
       end_smoothing="0.5"
       jointype="extrapolated"
       miter_limit="100" />
    <inkscape:path-effect
       effect="taper_stroke"
       start_shape="center | center"
       end_shape="center | center"
       id="path-effect17"
       is_visible="true"
       lpeversion="1"
       stroke_width="12"
       subpath="1"
       attach_start="1.9911631"
       end_offset="1.5672554"
       start_smoothing="0.5"
       end_smoothing="0.5"
       jointype="extrapolated"
       miter_limit="100" />
    <inkscape:path-effect
       effect="taper_stroke"
       start_shape="center | center"
       end_shape="center | center"
       id="path-effect16"
       is_visible="true"
       lpeversion="1"
       stroke_width="12"
       subpath="1"
       attach_start="1.3798187"
       end_offset="0.74183841"
       start_smoothing="0.5"
       end_smoothing="0.5"
       jointype="extrapolated"
       miter_limit="100" />
    <inkscape:path-effect
       effect="taper_stroke"
       start_shape="center | center"
       end_shape="center | center"
       id="path-effect15"
       is_visible="true"
       lpeversion="1"
       stroke_width="12"
       subpath="1"
       attach_start="2.2806334"
       end_offset="3.2780254"
       start_smoothing="0.5"
       end_smoothing="0.5"
       jointype="extrapolated"
       miter_limit="100" />
    <inkscape:path-effect
       effect="taper_stroke"
       start_shape="center | center"
       end_shape="center | center"
       id="path-effect14"
       is_visible="true"
       lpeversion="1"
       stroke_width="12"
       subpath="1"
       attach_start="2.1657039"
       end_offset="2.4328194"
       start_smoothing="0.5"
       end_smoothing="0.5"
       jointype="extrapolated"
       miter_limit="100" />
    <inkscape:path-effect
       effect="taper_stroke"
       start_shape="center | center"
       end_shape="center | center"
       id="path-effect13"
       is_visible="true"
       lpeversion="1"
       stroke_width="12"
       subpath="1"
       attach_start="4.0518809"
       end_offset="3.5595408"
       start_smoothing="0.5"
       end_smoothing="0.5"
       jointype="extrapolated"
       miter_limit="100" />
    <inkscape:path-effect
       effect="taper_stroke"
       start_shape="center | center"
       end_shape="center | center"
       id="path-effect12"
       is_visible="true"
       lpeversion="1"
       stroke_width="12"
       subpath="1"
       attach_start="4.8822815"
       end_offset="1.7663027"
       start_smoothing="0.5"
       end_smoothing="0.5"
       jointype="extrapolated"
       miter_limit="100" />
  </defs>
  <sodipodi:namedview
     id="namedview12"
     pagecolor="#ffffff"
     bordercolor="#666666"
     borderopacity="1.0"
     inkscape:showpageshadow="2"
     inkscape:pageopacity="0.0"
     inkscape:pagecheckerboard="0"
     inkscape:deskcolor="#d1d1d1"
     inkscape:zoom="0.52453988"
     inkscape:cx="279.2924"
     inkscape:cy="100.08772"
     inkscape:window-width="1920"
     inkscape:window-height="1057"
     inkscape:window-x="1912"
     inkscape:window-y="-8"
     inkscape:window-maximized="1"
     inkscape:current-layer="Layer_4_2" />
  <g
     stroke-linecap="round"
     id="Layer_4_2"
     style="stroke-width:12;stroke-dasharray:none">
    <path
       d="m 539.53446,194.36319 c 2.81661,-3.32998 5.42652,-7.00504 7.52712,-11.10003 1.3036,-2.65957 1.9915,-5.20197 2.40149,-7.44863 0.47499,-2.12488 0.83892,-4.67499 0.64827,-7.55481 -0.1454,-1.34847 -0.39895,-2.44747 -0.64248,-3.32171 -0.3516,-1.35157 -0.7508,-2.65466 -1.17917,-3.90747 -0.45677,-1.34205 -0.96059,-2.67362 -1.53732,-3.98827 -0.44621,-1.04911 -1.02426,-2.24978 -1.84877,-3.50025 -1.95821,-2.63825 -4.23673,-4.39006 -6.13021,-5.71537 -2.38671,-1.75493 -4.71726,-3.22479 -7.23628,-4.25315 0,-1e-5 0,-1e-5 -10e-6,-1e-5 -2.76868,-1.05893 -5.70383,-1.57409 -7.603,-1.92658 C 519.36426,140.78355 516.68,140.5 516.68,140.5 c 0,0 2.42901,1.18859 6.5059,3.31309 1.69549,0.8842 4.37087,2.20054 6.27699,3.61341 0,0 0,0 0,0 1.76462,1.31596 3.23687,2.94793 5.08372,5.04685 1.45203,1.71793 2.97187,3.45201 3.60979,5.08463 0.21481,0.53225 0.35297,1.26569 0.5981,2.23068 0.25701,1.11381 0.46705,2.27385 0.66581,3.5033 0.18268,1.14362 0.33939,2.29344 0.45395,3.43784 0.0801,0.85918 0.15085,1.52949 0.0944,1.97048 -0.0413,1.13901 -0.55669,2.56189 -1.09173,4.45019 -0.61881,1.84188 -1.17194,3.46286 -1.91851,4.58637 -1.82787,3.02308 -4.12027,5.91972 -6.61142,8.90685 -0.34199,0.40703 -0.68792,0.81075 -1.03631,1.20969 l 0.0219,-0.0249 c -2.31608,2.62273 -6.74718,6.28271 -9.88098,7.96539 l 0.0311,-0.0166 c -1.26589,0.67018 -4.76954,2.08018 -8.77515,3.45396 -6.00842,2.06066 -13.48615,4.28097 -18.94317,5.67561 l 0.0542,-0.0136 c -5.30952,1.30442 -17.62035,3.59039 -25.49538,4.67261 l 0.24306,-0.0284 c -4.24623,0.40795 -10.25693,1.02241 -16.97616,1.72785 -11.87162,1.2464 -23.64317,3.01033 -34.4707,4.9173 -4.6436,0.8179 -9.05141,1.64883 -13.26982,2.50224 -1.43491,0.2904 -2.82604,0.57738 -4.21328,0.87873 0,0 -10e-6,0 -10e-6,0 -0.62243,0.13741 -1.36204,0.2742 -2.24191,0.50852 -6.51084,1.95305 -12.27947,4.51139 -16.43307,6.50021 -2.73954,1.31024 -4.88278,2.43775 -6.6363,3.42378 -2.69663,1.51563 -4.05495,2.54387 -4.05495,2.54387 0,0 1.58649,-0.595 4.52794,-1.38176 1.95545,-0.51881 4.20206,-1.06751 7.15357,-1.71913 4.37656,-0.965 10.5191,-2.23644 16.75469,-2.91333 0.45384,-0.0342 1.05124,-0.0249 1.81038,-0.065 0,0 0,0 0,0 1.41631,-0.0533 2.73996,-0.096 4.23314,-0.14823 4.21178,-0.14675 8.79906,-0.32164 13.43958,-0.54403 10.92905,-0.52353 22.84197,-1.32868 34.65373,-2.56879 6.71295,-0.70479 12.68489,-1.31511 16.87077,-1.71726 a 728.61865,728.61865 0 0 1 0.12052,-0.0116 177.38237,177.38237 0 0 0 0.12254,-0.0168 c 8.16169,-1.1216 20.66947,-3.41979 26.72462,-4.90739 a 77.519844,77.519844 0 0 0 0.0274,-0.007 153.05755,153.05755 0 0 0 0.0268,-0.007 c 8.54434,-2.18365 24.50332,-7.04895 30.36168,-10.15043 a 20.810515,20.810515 0 0 0 0.016,-0.008 30.029837,30.029837 0 0 0 0.0151,-0.008 c 4.67456,-2.50999 9.98909,-6.95967 13.19902,-10.59461 a 33.975262,33.975262 0 0 0 0.0113,-0.0128 96.353777,96.353777 0 0 0 0.0106,-0.0121 c 0.3979,-0.45564 0.79341,-0.9172 1.18515,-1.38343 z"
       fill="none"
       stroke="rgb(0, 0, 0)"
       stroke-width="20.00"
       stroke-opacity="1"
       stroke-linejoin="round"
       id="path1"
       style="fill:#000000;fill-rule:nonzero;stroke:none;stroke-width:12;stroke-dasharray:none"
       inkscape:path-effect="#path-effect12"
       inkscape:original-d="m 516.68,140.5 c 3.01,0.92 10.73,3.36 13.82,5 3.48,1.9 9.27,7.15 11.03,10.05 1.64,2.81 3.39,10.51 3.51,12.93 0.11,2.95 -1.42,9.05 -3.03,12.02 -2.02,3.66 -5.01,7.67 -8.18,11.3 -2.87,3.25 -7.48,7.1 -11.54,9.28 -4.93,2.61 -19.61,7.23 -29.04,9.64 -5.78,1.42 -17.96,3.67 -26.11,4.79 -18.05845,1.73494 -68.34974,7.23896 -71.08974,7.78896 -10.64,2.19 -24.35026,7.28104 -27.78026,9.24104"
       sodipodi:nodetypes="ccccccccccc" />
    <path
       d="M329.50,228.50 C329.50,228.50 329.48,228.73 329.48,228.73"
       fill="none"
       stroke="rgb(0, 0, 0)"
       stroke-width="24.80"
       stroke-opacity="1.00"
       stroke-linejoin="round"
       id="path2"
       style="stroke-width:20;stroke-dasharray:none" />
    <path
       d="m 540.01315,251.1341 c -0.43375,-0.2092 -0.87091,-0.41802 -1.31171,-0.62587 -5.02328,-2.2477 -10.09943,-4.26267 -15.12036,-6.10081 -2.73365,-1.00071 -5.45919,-1.94784 -8.20302,-2.82054 -2.07992,-0.66441 -4.23874,-1.32725 -6.5525,-1.84957 0,0 -10e-6,0 -10e-6,0 -6.11585,-1.32303 -12.04094,-1.74905 -17.5716,-1.41901 -2.57814,0.17259 -5.01779,0.55804 -7.1983,0.94631 -2.94495,0.51927 -5.72513,1.1139 -8.22607,1.69747 -2.7701,0.64612 -5.20074,1.27636 -7.40879,1.90733 -1.83277,0.52369 -3.20794,0.90362 -4.66995,1.51379 -3.74193,1.61082 -5.62084,2.9068 -5.62084,2.9068 0,0 2.1861,-0.70458 6.07916,-1.3132 1.46935,-0.21722 2.70772,-0.23034 4.66567,-0.32246 2.27904,-0.0975 4.68867,-0.16232 7.51059,-0.20642 2.51181,-0.0388 5.30818,-0.0583 8.1708,-0.0113 2.15078,0.0364 4.43272,0.0896 6.56983,0.32506 4.85786,0.54726 9.87846,1.71492 15.04839,3.50099 0,0 0,0 0,0 1.74237,0.61873 3.51473,1.40547 5.4925,2.2573 2.52272,1.09579 5.02655,2.2229 7.63698,3.39759 4.80134,2.16116 9.5159,4.27194 14.35464,6.47419 0.37589,0.18058 0.75397,0.36327 1.13463,0.54751 3.16304,1.52806 7.65683,3.77416 12.02855,5.96894 2.91712,1.46452 5.85721,2.89778 8.80974,4.28398 1.72143,0.80911 3.54145,1.68496 5.54635,2.50822 4.15038,1.66946 8.32294,2.67327 12.31761,3.28312 3.71784,0.59977 7.53042,0.91504 11.40231,0.59296 2.59208,-0.26354 4.92605,-0.82828 6.96963,-1.38388 3.2619,-0.86682 6.32146,-1.87019 9.09371,-2.87303 9.85325,-3.55651 15.98626,-6.97617 19.44231,-9.10922 1.35871,-0.8351 2.0866,-1.30037 2.0866,-1.30037 0,0 -0.83152,0.22001 -2.3734,0.63963 -4.20437,1.15323 -10.23218,2.60005 -20.58136,4.04474 -2.81556,0.38962 -5.87523,0.76076 -8.99365,1.00938 -2.03829,0.15773 -4.06903,0.31177 -5.86168,0.17767 -2.8475,-0.18722 -5.76537,-0.91514 -9.03902,-1.8135 -3.40389,-0.9745 -6.76541,-2.13659 -9.81872,-3.66834 -1.53139,-0.7629 -3.15198,-1.67909 -4.93727,-2.62184 -2.85396,-1.51486 -5.75299,-3.02486 -8.67911,-4.49388 -4.34978,-2.18376 -8.91835,-4.46796 -12.19264,-6.04976 z"
       fill="none"
       stroke="rgb(0, 0, 0)"
       stroke-width="20.00"
       stroke-opacity="1"
       stroke-linejoin="round"
       id="path3"
       style="fill:#000000;fill-rule:nonzero;stroke:none;stroke-width:12;stroke-dasharray:none"
       inkscape:path-effect="#path-effect13"
       inkscape:original-d="m 458.13,247.29 c 1.28,-0.54 4.27,-1.65 5.85,-2.11 3.45,-0.98 19.82,-3.24 27.21,-3.14 4.32,0.09 11.3,1.08 16.31,2.46 6.01,1.69 21.61,8.26 28.68,11.45 7.38,3.51 24.4,12.24 27.32,13.55 6.57,2.92 15.84883,4.78896 21.28883,4.67896 6.14,-0.18 23.26117,-3.97896 35.47117,-9.29896 0.74,-0.32 1.49,-0.64 2.23,-0.97"
       sodipodi:nodetypes="ccccccccc" />
    <path
       d="m 399.86308,320.40152 c 2.46498,-1.2389 4.9258,-2.64495 7.30784,-4.28342 4.25842,-2.97977 7.91897,-6.35089 11.05806,-9.64048 0,0 1e-5,0 1e-5,0 3.78237,-3.94901 6.7566,-7.69964 9.09577,-11.27241 0,0 0,0 0,0 1.17439,-1.79416 2.27087,-3.70171 3.04878,-5.0532 C 432.3949,286.65164 433.5,284.5 433.5,284.5 c 0,0 -1.99047,1.3749 -5.21854,3.79799 -1.3533,1.01814 -2.8983,2.23766 -4.60622,3.4968 0,0 0,0 0,0 -3.39071,2.50791 -6.75696,4.71078 -11.29422,7.61509 0,0 0,0 0,0 -3.62383,2.30856 -7.48452,4.73144 -11.37194,6.89202 -2.0811,1.1487 -4.25636,2.22504 -6.54824,3.38441 -6.37513,3.21412 -14.40003,6.53785 -19.46114,8.08466 -7.71247,2.35216 -18.97831,4.54964 -26.51978,4.86424 l 0.0427,-0.002 c -6.42396,0.22218 -19.23945,0.21139 -25.26966,-0.58229 l 0.0148,0.002 c -7.26242,-0.97423 -47.93623,-8.39882 -62.30953,-11.10004 l 3.89206,9.213 c 4.97678,-7.50404 10.73475,-15.10291 15.47452,-20.40919 l -0.0128,0.0143 c 3.79073,-4.21666 17.93854,-17.33584 21.83379,-20.316 l -0.023,0.0175 c 2.21743,-1.67963 6.75985,-4.32112 11.54543,-6.65715 4.78558,-2.33603 9.95656,-4.47054 13.58259,-5.57679 l -0.0231,0.007 c 3.31876,-0.9979 21.3413,-5.01946 28.14802,-5.88366 l -0.0189,0.002 c 6.17575,-0.7642 23.40461,-1.52724 31.19521,-1.59482 l -0.11838,-1.4e-4 c 5.72528,0.0633 16.46075,0.4046 23.79591,0.79363 2.26086,0.12294 4.37992,0.19916 6.37917,0.3737 1.64041,0.13175 3.43473,0.43911 5.35668,0.75662 2.49138,0.41765 4.98015,0.87631 7.44186,1.34846 2.50665,0.48181 4.90683,0.95857 7.27482,1.47953 1.84791,0.42225 3.41696,0.73301 4.8195,1.19129 1.80059,0.60625 3.7866,1.39872 5.65726,2.10533 3.4691,1.3051 6.69438,2.49465 9.74134,3.59334 3.50203,1.26274 6.70562,2.38309 9.43573,3.32056 1.13325,0.38917 2.26589,0.77407 3.23238,1.10186 0.53899,0.18542 1.02998,0.33933 1.47537,0.50052 3.71488,1.38834 5.82632,2.30553 5.82632,2.30553 0,0 -1.68896,-1.55446 -4.91369,-3.97448 -0.46079,-0.33818 -0.85369,-0.59777 -1.33028,-0.93029 -0.87355,-0.60553 -1.80046,-1.24034 -2.82477,-1.93513 -2.40957,-1.63432 -5.20513,-3.49377 -8.35396,-5.52913 -2.69313,-1.74086 -5.66679,-3.62507 -8.8171,-5.5526 -1.65527,-1.01931 -3.51482,-2.17777 -5.5118,-3.25123 -1.94366,-0.99831 -3.83406,-1.72668 -5.61362,-2.38839 -2.4381,-0.91504 -4.92513,-1.75041 -7.46706,-2.53329 -2.50894,-0.77358 -5.09317,-1.49997 -7.74252,-2.1431 -1.94633,-0.4807 -4.07715,-0.95622 -6.40394,-1.25932 -2.45196,-0.30569 -4.79851,-0.44781 -7.02614,-0.56294 -7.45928,-0.39561 -18.3645,-0.74412 -24.29878,-0.80973 a 231.7929,231.7929 0 0 0 -0.059,-6.5e-4 161.4089,161.4089 0 0 0 -0.0594,5.1e-4 c -7.82757,0.0679 -25.3233,0.78912 -32.56479,1.68518 a 55.73956,55.73956 0 0 0 -0.009,0.001 61.116666,61.116666 0 0 0 -0.009,0.001 c -7.9437,1.00856 -24.97207,4.75687 -30.09198,6.29634 a 32.63618,32.63618 0 0 0 -0.0118,0.004 54.098714,54.098714 0 0 0 -0.0113,0.003 c -8.68869,2.65078 -22.3609,9.21412 -28.87198,14.14606 a 33.100031,33.100031 0 0 0 -0.0116,0.009 35.618064,35.618064 0 0 0 -0.0114,0.009 c -5.18806,3.96923 -18.83593,16.67347 -23.46621,21.824 a 43.446962,43.446962 0 0 0 -0.007,0.007 112.93205,112.93205 0 0 0 -0.006,0.007 c -5.25882,5.88737 -11.30337,13.89685 -16.52548,21.77081 a 219.33584,219.33584 0 0 0 -4.789,7.55066 1287.039,1287.039 0 0 0 8.68106,1.66234 c 12.65836,2.37893 54.93509,10.12741 62.93047,11.19996 a 47.414021,47.414021 0 0 0 0.007,9.9e-4 46.527465,46.527465 0 0 0 0.007,9.8e-4 c 7.45293,0.98093 20.80405,0.90067 27.25034,0.67771 a 163.67524,163.67524 0 0 0 0.021,-7.2e-4 62.959907,62.959907 0 0 0 0.0217,-9e-4 c 8.94982,-0.37336 21.04605,-2.79129 29.5236,-5.37679 5.99308,-1.83165 14.59838,-5.43781 21.3594,-8.84648 z"
       fill="none"
       stroke="rgb(0, 0, 0)"
       stroke-width="20.70"
       stroke-opacity="1"
       stroke-linejoin="round"
       id="path4"
       style="fill:#000000;fill-rule:nonzero;stroke:none;stroke-width:12;stroke-dasharray:none"
       inkscape:path-effect="#path-effect15"
       inkscape:original-d="m 433.5,284.5 c -1.61,1.83 -6.85,7.77 -8,9 -5.52,5.91 -14.53,13.37 -21.41,17.71 -6.9,4.31 -19.52,9.91 -27.34,12.3 -8.23,2.51 -19.63,4.77 -28.02,5.12 -6.65,0.23 -19.27,0.29 -26.26,-0.63 -8.2,-1.1 -48.2,-8.44 -62.62,-11.15 5.12,-7.72 10.98,-15.47 16,-21.09 4.45,-4.95 17.84,-17.39 22.65,-21.07 5.69,-4.31 18.74,-10.67 27,-13.19 4.39,-1.32 21.48,-5.12 29.12,-6.09 6.95,-0.86 23.81,-1.57 31.88,-1.64 8.14,0.09 25.56,0.71 30.75,1.27 5.84,0.64 21.4,4.52 26.06,6.55 3.17,1.4 27.07,13.3 28.19,13.91 1.53,0.84 4.22,2.43 5.37,3.14" />
    <path
       d="m 554.07082,308.33522 c -0.55326,-0.43597 -1.08218,-0.86863 -1.58052,-1.30409 -0.88352,-0.77043 -1.80576,-1.71394 -2.82826,-2.74457 -1.40076,-1.41925 -2.8239,-2.89639 -4.24782,-4.36002 -3.76648,-3.8726 -7.44399,-7.56485 -11.20493,-11.11492 0,0 0,0 0,0 -4.4328,-4.18493 -8.61337,-7.85147 -12.82292,-11.13818 -4.29902,-3.37342 -7.96723,-5.90031 -11.90367,-7.7548 C 501.733,266.37482 496.5,266.5 496.5,266.5 c 0,0 5.06461,1.63973 11.0173,6.58136 3.12269,2.58576 5.58387,5.43663 9.10889,9.56444 3.44878,4.07557 6.49893,7.94656 10.36681,12.8054 0,0 0,0 0,0 3.07287,3.86369 6.44554,8.11103 9.88366,12.19724 1.33246,1.58432 2.71659,3.19401 4.17158,4.79187 1.00851,1.11498 2.1389,2.3181 3.46146,3.52856 0.70799,0.63568 1.42281,1.23214 2.13771,1.79465 1.86705,1.47036 3.85484,2.76079 5.91791,3.86771 1.61234,0.89294 3.54516,1.79812 5.81741,2.4492 8.45613,1.87687 15.99394,0.0695 20.72764,-1.34599 C 584.05111,321.25704 587,320 587,320 c 0,0 -3.15038,-0.66885 -8.15812,-1.51351 -4.68334,-0.78994 -11.87408,-1.87878 -16.94461,-4.54692 -0.91887,-0.4803 -1.92526,-1.27279 -3.28694,-2.19811 -1.54012,-1.0956 -3.04736,-2.23171 -4.53951,-3.40624 z"
       fill="none"
       stroke="rgb(0, 0, 0)"
       stroke-width="20.00"
       stroke-opacity="1"
       stroke-linejoin="round"
       id="path5"
       style="fill:#000000;fill-rule:nonzero;stroke:none;stroke-width:12;stroke-dasharray:none"
       inkscape:path-effect="#path-effect14"
       inkscape:original-d="m 496.5,266.5 c 2.39,0.75 8.22,2.67 12,5 12.3319,7.72566 33.27116,33.9581 40,40 3.48,3.09 8.76,6.49 11.64,7.51 5.87,1.99 15.5,1.81 26.86,0.99"
       sodipodi:nodetypes="ccccc" />
    <path
       d="m 349.51107,276.69566 c -3.33912,0.79726 -6.88634,2.34907 -9.94374,4.73671 -2.22499,1.8453 -3.78754,3.88044 -4.93544,5.48807 -2.45048,3.3637 -3.72189,5.92956 -3.72189,5.92956 0,0 2.83868,-0.40375 6.80311,-1.38544 2.01156,-0.50884 4.2241,-1.20428 6.27956,-1.61693 2.428,-0.48898 5.27328,-0.66302 8.46507,-1.51938 2.69153,-0.6825 5.2263,-2.53687 7.20176,-4.31305 0.98938,-0.88905 1.87192,-1.8034 2.50982,-2.49387 0,0 0,0 0,0 0.87764,-0.90335 1.33185,-1.49639 1.33185,-1.49639 0,0 -0.68984,-0.47073 -1.7424,-1.06466 0,0 0,0 0,0 -0.87339,-0.46857 -1.99817,-0.99805 -3.32325,-1.47146 -2.59583,-0.92776 -5.86922,-1.56637 -8.92445,-0.79316 z"
       fill="none"
       stroke="rgb(0, 0, 0)"
       stroke-width="20.00"
       stroke-opacity="1"
       stroke-linejoin="round"
       id="path6"
       style="fill:#000000;fill-rule:nonzero;stroke:none;stroke-width:12;stroke-dasharray:none"
       inkscape:path-effect="#path-effect16"
       inkscape:original-d="m 330.91,292.85 c 2.16,-1.53 8.25,-5.82 10.87,-7.21 5.89,-3.07 20.24117,-5.49506 21.72117,-5.61506"
       sodipodi:nodetypes="ccc" />
    <path
       d="m 512.29631,362.75546 c -0.91892,-9.49375 -3.23561,-18.6739 -6.82448,-27.11193 -1.99037,-4.62176 -4.27651,-8.94324 -6.46865,-12.87772 -1.37828,-2.48195 -2.76311,-4.85186 -4.20587,-7.13965 -1.20935,-1.92423 -2.44513,-3.80246 -3.90168,-5.60994 -3.44552,-4.17064 -7.4998,-7.37121 -10.63167,-9.71131 0,0 0,0 0,0 C 472.12574,294.1903 466.5,291.5 466.5,291.5 c 0,0 4.6578,4.16287 11.10854,11.65258 0,0 0,0 0,10e-6 2.48237,2.8914 5.67684,6.67464 7.83583,10.61119 0.90606,1.64705 1.65777,3.41821 2.52769,5.45037 0.99819,2.35727 1.95018,4.76884 2.93976,7.34254 1.57892,4.11056 3.2559,8.49582 4.61635,12.79978 2.44238,7.79438 3.97475,16.02132 4.82545,24.57032 0.0563,0.57374 0.10359,1.12881 0.14167,1.66122 l -0.001,-0.0192 c 0.49367,7.22863 -0.68199,19.99033 -2.41607,26.40555 l 0.008,-0.0282 c -0.71863,2.60804 -3.36199,9.90292 -4.66273,12.48184 l 0.0237,-0.0464 c -1.4881,2.88772 -6.06082,9.91674 -8.03366,12.34546 l 0.009,-0.0105 c -1.47518,1.80772 -5.3586,5.43845 -9.45048,8.70076 -4.09189,3.2623 -8.61203,6.3746 -11.26869,7.77495 l 0.025,-0.0131 c -1.96982,1.02648 -8.39333,3.6712 -14.25958,5.91955 -5.86625,2.24836 -11.82751,4.38258 -12.76472,4.67678 l 0.0173,-0.005 c -3.76727,1.17011 -9.14972,2.46133 -14.28105,3.43362 -5.13133,0.97229 -10.1781,1.61825 -12.76905,1.65703 l 0.0265,-3.4e-4 c -4.87509,0.0515 -39.23809,-2.48398 -56.86886,-4.57844 l 0.0438,0.005 c -14.7117,-1.85758 -43.83044,-5.01716 -58.31196,-5.98393 a 260.50594,260.50594 0 0 0 -0.0487,-0.003 317.64136,317.64136 0 0 0 -0.0486,-0.002 c -14.94154,-0.75376 -50.63429,-1.49607 -60.42572,-0.85471 -8.71135,0.57243 -22.36513,2.51036 -31.73319,4.20266 a 261.34529,261.34529 0 0 0 -0.0771,0.0139 158.78261,158.78261 0 0 0 -0.0773,0.0161 c -7.92994,1.6483 -23.83562,5.5874 -31.16826,7.71133 a 136.23067,136.23067 0 0 0 -0.0621,0.018 113.04982,113.04982 0 0 0 -0.062,0.0194 c -8.97696,2.81169 -23.1851,8.49224 -30.59572,12.45457 a 62.682074,62.682074 0 0 0 -0.008,0.004 18.141705,18.141705 0 0 0 -0.009,0.005 c -3.18623,1.71642 -21.31969,12.71504 -25.07969,15.55378 a 15.497508,15.497508 0 0 0 -0.0116,0.009 45.066828,45.066828 0 0 0 -0.01,0.007 c -6.27948,4.78488 -16.51656,15.1935 -21.14915,21.14817 a 50.561631,50.561631 0 0 0 -0.03456,0.0445 368.22656,368.22656 0 0 0 -0.03197,0.0427 c -1.634693,2.18236 -6.605298,8.86876 -8.307319,12.1026 a 15.596172,15.596172 0 0 0 -0.01684,0.0321 22.539236,22.539236 0 0 0 -0.01514,0.0295 c -2.069993,4.04589 -4.858531,12.51404 -5.678616,16.73976 a 24.724332,24.724332 0 0 0 -0.0045,0.0235 48.949882,48.949882 0 0 0 -0.0041,0.0218 c -1.422289,7.64216 -2.713989,24.70264 -2.570399,33.04113 a 65.81077,65.81077 0 0 0 2.67e-4,0.0154 51.313446,51.313446 0 0 0 3.47e-4,0.0156 c 0.08766,3.91556 0.72867,12.51376 1.243853,15.73365 a 21.985191,21.985191 0 0 0 0.0022,0.014 31.587056,31.587056 0 0 0 0.0022,0.0132 c 0.736639,4.47245 3.176329,13.28139 4.851175,17.20862 a 22.569144,22.569144 0 0 0 0.0035,0.008 22.133627,22.133627 0 0 0 0.0036,0.008 c 2.32219,5.39992 11.26565,20.26953 15.528953,25.36835 a 24.751471,24.751471 0 0 0 0.0075,0.009 36.240226,36.240226 0 0 0 0.0072,0.009 c 2.718399,3.22598 7.708579,8.0048 10.982899,10.50937 a 33.368865,33.368865 0 0 0 0.0145,0.0111 17.044285,17.044285 0 0 0 0.0164,0.0124 c 5.60889,4.23313 21.9762,11.14143 28.01128,12.69211 a 22.247975,22.247975 0 0 0 0.0124,0.003 27.570915,27.570915 0 0 0 0.012,0.003 c 7.00804,1.76936 21.9771,2.61718 29.33918,1.83934 a 34.027513,34.027513 0 0 0 0.0137,-0.001 39.90094,39.90094 0 0 0 0.0135,-0.001 c 7.88158,-0.86899 24.34797,-5.06248 30.78968,-8.28927 a 21.476472,21.476472 0 0 0 0.0151,-0.008 19.676884,19.676884 0 0 0 0.0154,-0.008 c 3.13401,-1.59228 9.67188,-5.97058 12.63391,-8.3129 a 34.443847,34.443847 0 0 0 0.0106,-0.008 39.598184,39.598184 0 0 0 0.0105,-0.008 c 3.49615,-2.79031 8.22435,-7.53367 10.84828,-11.13862 a 28.913801,28.913801 0 0 0 0.0129,-0.0177 22.554112,22.554112 0 0 0 0.0133,-0.0185 c 2.13287,-2.97665 6.00404,-9.91044 7.547,-13.78473 a 25.302167,25.302167 0 0 0 0.007,-0.0183 41.498463,41.498463 0 0 0 0.007,-0.0173 c 3.17579,-8.12438 6.16719,-23.33157 6.91719,-31.59188 a 64.332962,64.332962 0 0 0 0.001,-0.0121 31.513554,31.513554 0 0 0 0.001,-0.0128 c 0.32526,-3.75617 0.34808,-11.86259 -0.24761,-16.04387 a 22.948861,22.948861 0 0 0 -0.003,-0.0215 29.898531,29.898531 0 0 0 -0.003,-0.0207 c -0.61478,-4.10631 -2.40975,-10.25399 -3.8454,-14.60979 a 143.63367,143.63367 0 0 0 -0.006,-0.019 20.090594,20.090594 0 0 0 -0.007,-0.0221 c -1.12829,-3.34188 -4.24306,-9.6637 -6.69695,-12.62162 a 13.51688,13.51688 0 0 0 -0.0219,-0.0263 13.268602,13.268602 0 0 0 -0.0223,-0.0263 c -2.44948,-2.88467 -9.34951,-8.5093 -11.63716,-10.04651 a 13.893257,13.893257 0 0 0 -0.026,-0.0174 19.058394,19.058394 0 0 0 -0.0238,-0.0157 c -4.05795,-2.66841 -11.43335,-5.29642 -16.0062,-6.01419 a 22.125691,22.125691 0 0 0 -0.0209,-0.003 21.51178,21.51178 0 0 0 -0.021,-0.003 c -4.20486,-0.62961 -12.3685,-0.5774 -16.55278,0.30218 a 16.841492,16.841492 0 0 0 -0.0284,0.006 18.218334,18.218334 0 0 0 -0.0278,0.006 c -4.2371,0.93317 -11.25034,4.06475 -15.04472,6.29979 a 33.776959,33.776959 0 0 0 -0.0243,0.0143 40.491564,40.491564 0 0 0 -0.0237,0.0143 c -3.69717,2.2244 -9.08171,6.26886 -11.70009,9.84968 a 15.065921,15.065921 0 0 0 -0.024,0.033 9.3264725,9.3264725 0 0 0 -0.0307,0.0432 c -2.7299,3.85847 -4.73599,12.91481 -5.03859,15.90843 a 12.514814,12.514814 0 0 0 -0.004,0.0376 11.657488,11.657488 0 0 0 -0.004,0.039 c -0.39044,4.42945 1.58311,11.01505 3.01579,14.3821 0.26584,0.63053 0.5967,1.32414 1.01109,2.06727 0.96378,1.59808 2.00356,2.87108 2.99206,3.88531 0.87964,0.971 2.07908,2.08871 3.67166,3.17148 1.4426,0.86349 2.66919,1.35143 3.61219,1.63025 1.38634,0.45848 2.73508,0.80773 4.02657,1.08557 2.53811,0.5589 5.15055,0.9768 7.85297,1.0312 2.97356,0.007 5.63066,-0.48212 7.86302,-1.07875 2.79309,-0.69133 5.14007,-1.60562 7.02919,-2.98427 0.92325,-0.69249 1.69257,-1.53473 2.18238,-2.04528 C 194.82701,563.63071 195.6,562.76 195.6,562.76 c 0,0 -1.1191,0.33366 -3.06053,0.95552 -0.69696,0.22675 -1.78839,0.62913 -2.59012,0.76472 -1.86308,0.3653 -3.47024,0.11219 -6.22331,-0.15427 -2.03786,-0.25973 -4.25893,-0.63629 -6.24448,-1.30875 -1.85064,-0.61973 -3.62188,-1.48873 -5.83702,-2.4988 -1.0345,-0.48799 -2.0417,-0.9821 -2.97781,-1.49881 -0.74797,-0.43162 -1.23863,-0.68651 -1.33344,-0.87537 -0.28721,-0.25792 -0.68652,-0.84519 -1.35084,-1.62852 -0.62192,-0.81563 -1.1266,-1.4657 -1.38544,-1.99469 -0.11345,-0.21296 -0.24108,-0.51262 -0.40313,-0.8877 -0.62885,-1.4779 -1.41021,-3.98768 -1.80372,-5.9964 -0.26234,-1.33914 -0.30656,-2.5638 -0.3004,-2.63366 l -0.007,0.0766 c 0.0599,-0.59282 0.56573,-3.2595 1.22243,-5.58802 0.39403,-1.39711 0.85366,-2.76874 1.2357,-3.68033 0.25469,-0.60773 0.51555,-1.02655 0.4374,-0.91609 l -0.0548,0.0761 c 0.35378,-0.48382 1.68901,-1.86612 3.25796,-3.14872 1.56894,-1.28259 3.41462,-2.58269 4.94195,-3.5016 l -0.048,0.0286 c 1.48178,-0.87283 3.81702,-2.02878 6.05842,-2.98284 2.2414,-0.95406 4.53806,-1.73061 5.47686,-1.93737 l -0.0562,0.0121 c 0.85042,-0.17877 3.42921,-0.42603 5.92057,-0.4649 2.49136,-0.0389 5.13842,0.10018 6.38665,0.28708 l -0.0419,-0.006 c 1.33694,0.20985 3.70357,0.85147 5.91235,1.66859 2.20877,0.81713 4.38028,1.87202 5.36145,2.51722 l -0.0498,-0.0331 c 0.3649,0.24519 2.63565,1.98543 4.65219,3.68689 2.01655,1.70146 4.19364,3.76971 4.53065,4.1666 l -0.0442,-0.0527 c 0.33991,0.40974 1.47787,2.17028 2.40928,3.96179 0.93141,1.79151 1.79811,3.78313 2.15377,4.83659 l -0.0137,-0.0411 c 1.40864,4.27381 2.97037,9.93027 3.3746,12.63021 l -0.006,-0.0421 c 0.35921,2.52139 0.42067,10.4489 0.17239,13.31613 l 0.002,-0.0249 c -0.66,7.269 -3.69032,22.03412 -6.14281,28.30812 l 0.014,-0.0355 c -0.97661,2.45224 -4.95057,9.55716 -6.153,11.23527 l 0.0262,-0.0362 c -1.64114,2.25472 -6.02095,6.73771 -8.63172,8.82138 l 0.0211,-0.0168 c -2.25482,1.78306 -9.24782,6.32685 -10.62609,7.0271 l 0.0305,-0.0154 c -1.74902,0.87612 -7.01546,2.68842 -12.34869,4.10933 -5.33324,1.42091 -11.08539,2.61797 -14.38163,2.9814 l 0.0271,-0.003 c -2.65816,0.28085 -7.87445,0.27971 -12.86943,-0.0269 -4.99497,-0.30664 -10.0779,-0.95992 -12.27139,-1.51372 l 0.0244,0.006 c -2.0461,-0.52573 -7.41415,-2.51671 -12.38073,-4.71524 -4.96657,-2.19854 -10.06961,-4.93766 -11.38799,-5.93265 l 0.0309,0.0235 c -2.20739,-1.68846 -7.17673,-6.43168 -9.0971,-8.71063 l 0.0148,0.0176 c -1.4536,-1.73848 -4.67438,-6.5305 -7.49309,-11.1728 -2.818712,-4.6423 -5.50407,-9.5788 -6.217957,-11.23885 l 0.0071,0.0166 c -0.98589,-2.31174 -3.490699,-11.06275 -4.048825,-14.45138 l 0.0044,0.0272 c -0.291219,-1.82012 -1.016332,-10.54127 -1.096147,-14.10635 l 6.14e-4,0.031 c -0.126838,-7.36561 1.206709,-24.3905 2.369601,-30.63887 l -0.0086,0.0453 c 0.25138,-1.2953 1.055733,-4.18063 1.97231,-6.90798 0.916577,-2.72734 2.031927,-5.5242 2.609074,-6.65226 l -0.03198,0.0616 c 0.705205,-1.33989 5.364611,-7.92338 7.292681,-10.4974 l -0.0665,0.0871 c 3.81857,-4.90835 13.96896,-15.1757 18.95085,-18.97183 l -0.0213,0.0161 c 0.80267,-0.60601 4.65382,-3.1233 8.69726,-5.63867 6.06516,-3.77306 13.51604,-8.21268 14.84305,-8.92755 l -0.0165,0.009 c 6.19032,-3.30985 20.23082,-8.98782 28.52428,-11.58543 l -0.12405,0.0374 c 6.93082,-2.00755 22.67749,-5.91014 30.27174,-7.48867 l -0.15444,0.03 c 9.08324,-1.64084 22.49644,-3.51886 30.38556,-4.03726 7.87714,-0.51597 43.65317,0.0892 59.03553,0.86521 l -0.0974,-0.006 c 14.04861,0.93788 42.93326,4.06314 57.60804,5.91607 a 633.80802,633.80802 0 0 1 0.0217,0.003 322.96743,322.96743 0 0 0 0.0221,0.003 c 16.52024,1.96252 50.81231,4.74178 58.41114,4.66156 a 27.576881,27.576881 0 0 0 0.0134,-1.5e-4 32.532811,32.532811 0 0 0 0.0131,-1.9e-4 c 7.66697,-0.11478 22.09978,-3.04205 30.4299,-5.62935 a 76.827014,76.827014 0 0 0 0.008,-0.002 18.605005,18.605005 0 0 0 0.009,-0.003 c 3.49828,-1.09817 23.32041,-8.45669 28.9757,-11.40367 a 23.153952,23.153952 0 0 0 0.0129,-0.007 35.06383,35.06383 0 0 0 0.0122,-0.006 c 7.21981,-3.80562 19.53647,-13.5189 24.42083,-19.50429 a 26.319738,26.319738 0 0 0 0.004,-0.005 35.185458,35.185458 0 0 0 0.004,-0.005 c 2.85672,-3.51683 7.31269,-10.39053 9.38634,-14.41454 a 37.841908,37.841908 0 0 0 0.0117,-0.0227 26.289462,26.289462 0 0 0 0.012,-0.0238 c 1.88935,-3.74595 4.58857,-11.3277 5.51727,-14.69816 a 31.168936,31.168936 0 0 0 0.004,-0.0144 48.422337,48.422337 0 0 0 0.004,-0.0138 c 2.25324,-8.33588 3.41069,-21.46968 2.80393,-30.35445 a 58.040409,58.040409 0 0 0 -6.6e-4,-0.01 68.301,68.301 0 0 0 -6.9e-4,-0.01 c -0.0462,-0.64554 -0.10258,-1.30547 -0.1684,-1.97653 z"
       fill="none"
       stroke="rgb(0, 0, 0)"
       stroke-width="20.00"
       stroke-opacity="1"
       stroke-linejoin="round"
       id="path7"
       style="fill:#000000;fill-rule:nonzero;stroke:none;stroke-width:12;stroke-dasharray:none"
       inkscape:path-effect="#path-effect19"
       inkscape:original-d="m 466.5,291.5 c 8.4,6.07 17.54,14.41 21.67,20.39 3.75,5.48 10.24,20.04 12.33,25.61 2.98,8.02 5.4,19.55 5.98,27.66 0.56,8.2 -0.58,20.87 -2.61,28.38 -0.89,3.23 -3.36,10.16 -5.09,13.59 -1.85,3.59 -6.2,10.29 -8.71,13.38 -4.17,5.11 -15.93,14.49 -22.57,17.99 -5.45,2.84 -24.91,10.03 -28,11 -8.21,2.55 -22.06,5.26 -28.74,5.36 -6.63,0.07 -39.71,-2.49 -57.64,-4.62 -14.81,-1.87 -43.58,-4.99 -57.96,-5.95 -15.66,-0.79 -50.57,-1.46 -59.73,-0.86 -8.37,0.55 -21.76,2.44 -31.06,4.12 -7.89,1.64 -23.47,5.5 -30.72,7.6 -8.78,2.75 -22.64,8.32 -29.56,12.02 -3.23,1.74 -20.8,12.41 -24.31,15.06 -5.84,4.45 -15.67,14.43 -20.05,20.06 -1.97,2.63 -6.4,8.64 -7.8,11.3 -1.76,3.44 -4.41,11.44 -5.13,15.15 -1.34,7.2 -2.61,23.71 -2.47,31.84 0.09,4.02 0.73,12.17 1.17,14.92 0.7,4.25 3,12.43 4.45,15.83 2.09,4.86 10.64,19.13 14.62,23.89 2.41,2.86 7.19,7.43 10.04,9.61 4.77,3.6 20.13,10.19 25.89,11.67 6.06,1.53 20.52,2.4 27.24,1.69 7.8,-0.86 23.33,-4.97 28.76,-7.69 2.48,-1.26 8.81,-5.44 11.63,-7.67 3.17,-2.53 7.52,-6.93 9.74,-9.98 1.82,-2.54 5.48,-9.07 6.85,-12.51 2.92,-7.47 5.8,-21.91 6.53,-29.95 0.31,-3.58 0.31,-11.03 -0.21,-14.68 -0.53,-3.54 -2.14,-9.16 -3.61,-13.62 -1.05,-3.11 -3.78,-8.48 -5.63,-10.71 -1.97,-2.32 -8.52,-7.68 -10.41,-8.95 -3.3,-2.17 -9.69,-4.48 -13.64,-5.1 -3.74,-0.56 -11.1,-0.46 -14.43,0.24 -3.36,0.74 -9.64,3.46 -13.29,5.61 -3.64,2.19 -8.1,5.72 -9.95,8.25 -1.79,2.53 -3.68706,10.27643 -3.96706,13.04643 -0.29,3.29 1.67706,10.10357 3.26706,12.98357 1,1.74 3.27,4.32 4.7,5.34 2.25,1.54 9.41,3.81 12.82,4.31 3.78,0.52 10.47,0.22 13.68,-1.3 0.8,-0.38 3.89,-2.35 5.02,-3.05"
       sodipodi:nodetypes="cccccccccccccccccccccccccccccccccccccccccccccc" />
    <path
       d="m 440.33259,332.05762 c 1.87143,-2.50453 3.10054,-5.06115 4.01365,-7.38915 1.09715,-2.6365 2.05842,-5.53604 2.45207,-8.66164 0.32985,-3.37464 -0.14363,-6.35409 -0.52649,-8.50286 0,0 0,0 0,0 C 445.48296,302.80085 444.5,299.85 444.5,299.85 c 0,0 -1.29468,2.83439 -3.04932,7.13853 0,0 0,0 0,0 -0.80166,1.9778 -1.82624,4.81276 -2.92899,6.66464 -0.99216,1.71691 -2.4617,3.48632 -3.98795,5.76831 -1.39561,1.98908 -2.58539,3.86901 -3.76297,5.38551 -0.01,0.0126 -0.0186,0.0245 -0.0272,0.0357 l 0.0339,-0.0437 c -0.69809,0.89076 -2.50936,2.63047 -4.46778,4.17571 -1.95841,1.54524 -4.13588,3.00944 -5.5852,3.82247 l 0.0412,-0.0229 c -1.74891,0.96311 -3.94582,2.08679 -6.07623,3.10866 -2.48718,1.17552 -4.60712,2.44997 -6.5765,3.44505 0,0 0,0 0,0 -3.94472,2.1217 -9.22814,3.62104 -12.85294,4.70088 C 391.45543,345.16222 389,346 389,346 c 0,0 2.31411,1.14748 6.20348,2.37515 3.79875,1.19907 9.59722,2.5408 16.26355,1.2969 0,0 0,0 0,0 3.10152,-0.6645 5.92201,-1.75741 8.41221,-2.96943 2.30005,-1.10324 4.68343,-2.32009 6.67506,-3.41686 a 92.538023,92.538023 0 0 0 0.0198,-0.0109 29.902602,29.902602 0 0 0 0.0214,-0.012 c 3.9212,-2.1997 10.47368,-7.03816 13.62702,-11.06182 a 18.041062,18.041062 0 0 0 0.017,-0.0218 18.078377,18.078377 0 0 0 0.0169,-0.0219 c 0.0255,-0.0332 0.0509,-0.0664 0.0761,-0.0997 z"
       fill="none"
       stroke="rgb(0, 0, 0)"
       stroke-width="20.00"
       stroke-opacity="1"
       stroke-linejoin="round"
       id="path8"
       style="fill:#000000;fill-rule:nonzero;stroke:none;stroke-width:12;stroke-dasharray:none"
       inkscape:path-effect="#path-effect17"
       inkscape:original-d="m 444.5,299.85 c -0.22,3.21 -0.87,11.52 -1.84,14.98 -1.07,3.71 -5.23,11.16 -7.16,13.67 -2.5,3.19 -8.15,7.46 -11.84,9.53 -4.34,2.39 -10.79,5.46 -13.87,6.47 -5.49,1.76 -13.62,1.79 -20.79,1.5" />
    <path
       d="m 462.2686,349.62229 c 0.61553,-0.7842 1.25299,-1.71631 1.85967,-2.81302 1.34017,-2.61432 2.0187,-5.10816 2.40978,-7.29307 0.52578,-2.69269 0.77127,-5.33346 0.76625,-7.85032 -0.0592,-4.74941 -1.26817,-8.73147 -2.15999,-11.2222 C 464.21452,317.84692 463.48,316.37 463.48,316.37 c 0,0 -0.46787,1.60024 -1.18044,4.18981 -0.65172,2.36845 -1.73216,6.37419 -3.18386,9.59431 -0.87762,2.0048 -1.79115,3.89618 -2.83625,6.06468 -0.89664,1.82254 -1.65462,3.48531 -2.46772,4.67193 -0.24642,0.37321 -0.60697,0.82484 -1.03456,1.38903 -1.96166,2.48263 -3.67386,4.92901 -5.52124,6.98838 0,0 0,0 0,0 -1.6644,2.00816 -4.74124,4.1694 -6.8826,5.7935 0,0 0,0 0,0 -3.42751,2.5998 -5.80333,4.43836 -5.80333,4.43836 0,0 2.9291,0.50638 7.46417,0.32336 0,0 0,0 0,0 2.80221,-0.0776 6.79135,-0.38732 10.9899,-2.43149 0,0 0,-10e-6 0,-10e-6 3.6011,-1.85728 6.80337,-4.56008 9.24453,-7.76957 z"
       fill="none"
       stroke="rgb(0, 0, 0)"
       stroke-width="20.00"
       stroke-opacity="1"
       stroke-linejoin="round"
       id="path9"
       style="fill:#000000;fill-rule:nonzero;stroke:none;stroke-width:12;stroke-dasharray:none"
       inkscape:path-effect="#path-effect18"
       inkscape:original-d="m 463.48,316.37 c 0.4,5.77 0.42,10.69 -0.27,14.54 -0.8,4.21 -2.59,10.03 -4.24,12.94 -1.66,2.86 -6,7.44 -8.83,9.48 -4.49,3.14 -14.15,5.77 -15.57,6.17" />
    <path
       d="m 348.93683,558.73987 c -0.17425,1.22418 -0.42497,2.45282 -0.74257,3.67331 -0.3556,1.0992 -0.4423,1.79053 -0.55524,1.95522 0.0553,0.0748 -0.23356,0.36842 -0.71671,0.93832 0,0 -10e-6,0 -10e-6,0 -0.6015,0.66876 -1.2825,1.33927 -2.00595,2.01976 -1.5748,1.42547 -2.84007,2.63642 -4.17327,3.51513 -1.38163,0.98494 -3.35613,1.65379 -5.33535,2.24105 -2.31446,0.60525 -4.03943,1.07917 -5.8149,1.05046 0,0 0,0 0,0 -2.69707,0.12138 -5.68932,-1.71854 -7.29219,-2.74413 C 320.48592,570.22785 319.5,569.5 319.5,569.5 c 0,0 0.49734,1.11033 1.68561,2.99152 1.06165,1.68073 3.20492,4.79185 7.22156,6.59536 0,0 0,0 0,0 2.43216,0.92684 5.09204,1.29731 7.8201,1.33546 2.42818,0.096 5.29621,-0.0853 8.38964,-1.10395 2.54462,-0.92906 4.79588,-2.19305 6.80424,-3.51987 1.0293,-0.66518 2.08141,-1.41635 3.12935,-2.27961 0,0 10e-6,0 10e-6,0 0.72748,-0.5549 1.65009,-1.42571 2.65047,-2.72731 1.25349,-1.91384 1.95346,-3.62872 2.32827,-4.93182 0.5851,-1.74808 1.02131,-3.56372 1.28727,-5.42494 0.19622,-1.37521 0.3446,-3.28782 0.1939,-4.7999 a 10.267399,10.267399 0 0 0 -0.007,-0.0659 11.619605,11.619605 0 0 0 -0.007,-0.061 c -0.22668,-1.87012 -1.16133,-5.77388 -2.30723,-7.87783 a 8.2279857,8.2279857 0 0 0 -0.0407,-0.0739 8.7368294,8.7368294 0 0 0 -0.0391,-0.068 c -2.31909,-3.99598 -9.12919,-8.42907 -12.63142,-9.66588 a 10.820509,10.820509 0 0 0 -0.0354,-0.0124 21.05264,21.05264 0 0 0 -0.028,-0.01 c -3.76156,-1.28129 -10.52125,-2.39521 -14.62573,-2.36023 a 21.572459,21.572459 0 0 0 -0.0331,3.1e-4 43.416325,43.416325 0 0 0 -0.0303,5.6e-4 c -4.56388,0.0871 -11.79845,0.94529 -16.41685,2.30224 a 28.580988,28.580988 0 0 0 -0.0254,0.007 19.832255,19.832255 0 0 0 -0.027,0.008 c -3.65025,1.10878 -11.36883,4.60375 -14.99777,6.63595 a 35.942707,35.942707 0 0 0 -0.0114,0.006 41.617791,41.617791 0 0 0 -0.0112,0.006 c -4.10211,2.32049 -10.17323,6.67461 -13.50992,9.9515 a 28.59263,28.59263 0 0 0 -0.0191,0.0188 24.228324,24.228324 0 0 0 -0.0194,0.0194 c -2.81458,2.81458 -7.7155,9.1027 -9.76147,12.84356 a 21.263134,21.263134 0 0 0 -0.006,0.0111 18.277102,18.277102 0 0 0 -0.006,0.0115 c -1.55518,2.87263 -4.90178,10.8937 -5.67641,13.56615 a 11.834773,11.834773 0 0 0 -0.006,0.0212 16.73106,16.73106 0 0 0 -0.005,0.0186 c -1.00218,3.54888 -2.03843,11.70462 -2.21422,14.52768 a 22.75644,22.75644 0 0 0 -0.001,0.02 32.448017,32.448017 0 0 0 -0.001,0.0191 c -0.19838,3.56047 -0.0613,11.66637 1.17495,16.53922 a 20.37726,20.37726 0 0 0 0.005,0.0189 12.131212,12.131212 0 0 0 0.006,0.0223 c 0.79008,3.02411 4.16307,11.15567 5.78846,14.06201 a 16.22371,16.22371 0 0 0 0.0143,0.0255 18.990558,18.990558 0 0 0 0.0139,0.0244 c 2.24441,3.92471 7.36844,9.63258 11.69902,11.99082 a 14.234537,14.234537 0 0 0 0.004,0.002 8.5582186,8.5582186 0 0 0 0.006,0.003 c 2.15072,1.16581 10.49165,4.49394 13.11716,5.27564 a 13.903453,13.903453 0 0 0 0.0214,0.006 15.740937,15.740937 0 0 0 0.0206,0.006 c 4.62687,1.34091 11.23903,0.95481 16.21272,0.13778 a 55.162248,55.162248 0 0 0 0.0232,-0.004 33.498111,33.498111 0 0 0 0.0242,-0.004 c 8.11025,-1.39907 21.80053,-6.83856 27.77922,-10.60673 a 27.768012,27.768012 0 0 0 0.009,-0.006 22.156543,22.156543 0 0 0 0.009,-0.006 c 4.63602,-2.94482 18.05942,-13.89073 22.95616,-17.914 6.08268,-4.98505 16.99463,-11.85593 23.53772,-14.79854 l -0.0241,0.0108 c 2.47755,-1.10113 11.44995,-4.00789 13.25092,-4.37161 l -0.0513,0.0101 c 1.2284,-0.23695 3.68278,-0.40081 6.09023,-0.34077 2.40746,0.0601 4.89349,0.3317 6.29916,0.63467 l -0.0473,-0.0104 c 1.32222,0.29618 3.89158,1.11479 6.26706,2.03359 2.37548,0.9188 4.75545,2.03842 5.58467,2.53876 l -0.0487,-0.0297 c 0.68459,0.422 3.80132,2.98925 6.88937,5.86187 4.05306,3.77032 10.23407,9.86518 13.00415,12.33721 a 47.871885,47.871885 0 0 0 0.0109,0.01 55.265814,55.265814 0 0 0 0.0109,0.01 c 3.17381,2.80477 8.30532,6.68979 11.7027,8.60846 a 26.570147,26.570147 0 0 0 0.0211,0.0119 21.261239,21.261239 0 0 0 0.022,0.0122 c 3.32922,1.84425 10.27414,4.52319 14.04383,5.48518 a 25.844342,25.844342 0 0 0 0.0273,0.007 31.257762,31.257762 0 0 0 0.0267,0.007 c 4.34143,1.06509 11.46537,1.82548 16.18137,1.79265 a 41.190737,41.190737 0 0 0 0.0162,-1.1e-4 47.809499,47.809499 0 0 0 0.016,-1.9e-4 c 8.7023,-0.10718 23.88074,-2.67064 31.85645,-5.89754 a 33.480832,33.480832 0 0 0 0.0114,-0.005 39.719931,39.719931 0 0 0 0.0112,-0.005 c 2.82915,-1.15804 10.14289,-4.53309 17.08142,-7.47612 4.63474,-1.96586 9.24236,-3.72611 10.83248,-4.14159 l -0.0436,0.0112 c 2.07875,-0.52653 9.33413,-1.49278 11.50171,-1.52708 l -0.0387,4.9e-4 c 1.76527,-0.0166 5.58571,0.39292 9.68643,1.08907 6.15107,1.04422 13.29051,2.69317 17.57877,3.98681 2.03227,0.6114 24.09121,7.23704 31.67057,8.83528 a 46.592871,46.592871 0 0 0 0.008,0.002 65.109278,65.109278 0 0 0 0.008,0.002 c 8.09352,1.68444 23.55073,3.2932 30.86115,3.18522 a 43.650611,43.650611 0 0 0 0.0155,-2.4e-4 31.260634,31.260634 0 0 0 0.016,-3.1e-4 c 7.46722,-0.14952 20.18639,-3.08136 26.22921,-4.09528 1.66699,-0.2797 3.0443,-0.44499 3.60647,-0.46898 l -0.051,0.002 c 0.96253,-0.0329 4.38066,0.34287 7.15927,0.82246 1.76848,0.30482 3.59527,0.63954 5.50213,0.94254 3.08714,0.47746 5.86843,0.409 8.27069,0.2273 2.77147,-0.16313 5.59132,-0.48268 8.41855,-1.16506 4.96158,-1.28602 9.4004,-3.18151 12.83336,-4.77471 0,0 1e-5,0 1e-5,0 C 730.38231,621.0826 734.55,618.13 734.55,618.13 c 0,0 -4.98967,0.52429 -12.64376,1.10845 0,0 0,1e-5 0,1e-5 -3.56154,0.26361 -8.4929,0.68058 -12.76164,0.70779 -2.17041,-0.004 -4.38375,-0.25426 -6.97895,-0.50256 -2.32481,-0.25481 -4.45982,-0.43523 -6.15181,-0.8952 -1.82589,-0.44335 -3.74119,-0.87775 -5.74878,-1.22467 -2.68133,-0.4628 -6.79768,-1.08635 -9.60982,-0.99033 a 15.551432,15.551432 0 0 0 -0.0254,8.9e-4 15.043252,15.043252 0 0 0 -0.0257,0.001 c -3.88497,0.16577 -12.46223,2.04085 -17.94856,3.03915 -4.50161,0.81911 -8.94361,1.46309 -11.61576,1.51659 l 0.0315,-5.5e-4 c -5.74222,0.0848 -21.11194,-1.45151 -28.23885,-2.93478 l 0.0154,0.003 c -6.79787,-1.43344 -28.29203,-7.86346 -30.6851,-8.58341 -7.64885,-2.30742 -23.23858,-5.65668 -30.83913,-5.58543 a 24.793598,24.793598 0 0 0 -0.0193,1.9e-4 23.697676,23.697676 0 0 0 -0.0194,3e-4 c -3.63337,0.0575 -10.7572,1.00613 -14.25829,1.89292 a 23.586411,23.586411 0 0 0 -0.0212,0.005 17.807138,17.807138 0 0 0 -0.0224,0.006 c -6.62705,1.73159 -27.06976,11.15778 -29.4261,12.12229 l 0.0226,-0.009 c -2.71629,1.09898 -7.94373,2.4532 -13.22538,3.40764 -5.28166,0.95445 -10.79939,1.57198 -14.27817,1.61482 l 0.0321,-3e-4 c -3.5896,0.025 -10.36949,-0.74345 -13.23863,-1.44735 l 0.054,0.0135 c -2.43179,-0.62058 -9.44099,-3.38253 -11.19617,-4.35482 l 0.043,0.0241 c -1.93613,-1.09342 -7.0227,-4.82329 -9.6573,-7.15154 l 0.0218,0.0193 c -2.89412,-2.58273 -16.73374,-16.4695 -21.58648,-19.46092 a 10.692587,10.692587 0 0 0 -0.0271,-0.0166 19.480534,19.480534 0 0 0 -0.0216,-0.0131 c -3.71137,-2.2394 -11.17966,-5.05596 -15.42827,-6.00765 a 25.478878,25.478878 0 0 0 -0.0237,-0.005 26.062443,26.062443 0 0 0 -0.0236,-0.005 c -4.6841,-1.00961 -12.27583,-1.29413 -17.19061,-0.3461 a 21.884197,21.884197 0 0 0 -0.0256,0.005 20.8639,20.8639 0 0 0 -0.0258,0.005 c -3.79665,0.76675 -12.08944,3.54188 -15.74908,5.16839 a 28.913156,28.913156 0 0 0 -0.0125,0.006 59.570237,59.570237 0 0 0 -0.0117,0.005 c -7.92138,3.56247 -19.2305,10.73135 -26.22802,16.46617 -5.49717,4.51659 -19.23641,15.4468 -21.7781,17.06129 l 0.0179,-0.0113 c -1.92141,1.21101 -6.36795,3.3436 -10.94726,5.12141 -4.57931,1.77781 -9.52814,3.30376 -12.47352,3.81186 l 0.0474,-0.008 c -2.12589,0.34923 -4.47164,0.55612 -6.50821,0.57208 -2.03656,0.016 -3.83183,-0.22411 -4.41907,-0.3943 l 0.042,0.0123 c -1.18751,-0.35357 -4.89092,-1.78198 -7.57697,-2.90784 -0.002,-7.3e-4 -3.24638,-1.4168 -3.24587,-1.41652 l 0.0102,0.006 c -0.46373,-0.25252 -2.18665,-1.5887 -3.64405,-3.1157 -1.45741,-1.527 -2.83695,-3.34923 -3.37693,-4.29348 l 0.0282,0.0499 c -0.4264,-0.76244 -1.64635,-3.41764 -2.64337,-5.8511 -0.99703,-2.43345 -1.95489,-5.18296 -2.00817,-5.38689 l 0.0106,0.0412 c -0.32359,-1.27551 -0.64792,-3.91542 -0.78159,-6.44939 -0.13367,-2.53396 -0.1201,-5.09595 -0.0435,-6.47139 l -0.002,0.0391 c 0.12364,-1.98547 1.31923,-10.36017 1.78578,-12.01232 l -0.0114,0.0398 c 0.0836,-0.28837 1.02556,-2.8759 2.01047,-5.24999 0.9849,-2.37409 2.1599,-4.95895 2.69312,-5.94386 l -0.0123,0.0226 c 0.52088,-0.95237 2.02899,-3.17902 3.58799,-5.21448 1.55901,-2.03546 3.29887,-4.07029 4.13054,-4.90196 l -0.0385,0.0382 c 2.02086,-1.98465 7.92566,-6.32369 11.01008,-8.0685 l -0.0226,0.0127 c 2.85264,-1.59748 10.93394,-5.11122 12.62223,-5.62405 l -0.0525,0.0157 c 2.83371,-0.83259 9.75129,-1.75071 13.26315,-1.81776 l -0.0634,8.7e-4 c 1.17458,-0.01 3.34814,0.18436 5.42525,0.52233 2.07711,0.33798 4.17848,0.8396 5.22902,1.19744 l -0.0634,-0.022 c 0.31292,0.1105 2.25415,1.12962 3.75578,2.23033 0.75081,0.55036 1.45071,1.12984 1.93527,1.58873 0.24228,0.22944 0.65418,0.7216 0.55753,0.55506 l -0.0798,-0.14188 c -2.2e-4,-4e-4 0.45435,1.4114 0.45458,1.41224 0.23958,0.85674 0.44305,1.88002 0.47819,2.16993 l -0.014,-0.12693 c 0.007,0.0716 0.007,0.93776 -0.13275,1.91481 z"
       fill="none"
       stroke="rgb(0, 0, 0)"
       stroke-width="20.00"
       stroke-opacity="1"
       stroke-linejoin="round"
       id="path10"
       style="fill:#000000;fill-rule:nonzero;stroke:none;stroke-width:12;stroke-dasharray:none"
       inkscape:path-effect="#path-effect20"
       inkscape:original-d="m 319.5,569.5 c 3.18,3.62 6.05,6.25 9.5,7.11 3.53,0.81 10.09,0.08 13.68,-1.53 3.05,-1.42 8.34,-5.46 9.74,-7.5 1.42,-2.16 2.92,-8.34 2.62,-11.35 -0.2,-1.65 -1.01,-4.61 -1.62,-5.73 -1.3,-2.24 -6.58,-6.01 -9.44,-7.02 -3.2,-1.09 -9.12,-2.07 -12.64,-2.04 -4.19,0.08 -10.96,0.92 -14.84,2.06 -2.93,0.89 -10.31,4.17 -13.81,6.13 -3.73,2.11 -9.47,6.27 -12.26,9.01 -2.44,2.44 -7.05,8.39 -8.74,11.48 -1.57,2.9 -4.59,10.31 -5.19,12.38 -0.85,3.01 -1.83,10.54 -2,13.27 -0.19,3.41 -0.03,10.67 1,14.73 0.58,2.22 3.71,9.95 5.22,12.65 1.87,3.27 6.33,8.05 9.36,9.7 1.07,0.58 8.88,3.88 11.97,4.8 3.14,0.91 8.7,0.78 13.57,-0.02 7.42,-1.28 20.38,-6.48 25.6,-9.77 3.92,-2.49 16.82,-12.93 22.37,-17.49 6.65,-5.45 17.52,-12.32 24.88,-15.63 3.33,-1.48 11.43,-4.15 14.5,-4.77 3.94,-0.76 10.8,-0.54 14.79,0.32 3.75,0.84 10.69,3.51 13.64,5.29 4.38,2.7 16,14.6 20.74,18.83 3.01,2.66 7.9,6.31 10.68,7.88 2.78,1.54 9.25,4.06 12.62,4.92 3.75,0.92 10.4,1.65 14.71,1.62 8.12,-0.1 22.71,-2.64 29.68,-5.46 3.86,-1.58 22.47,-10.25 28.67,-11.87 3.04,-0.77 9.72,-1.66 12.88,-1.71 6.4,-0.06 21.26,2.98 29.05,5.33 2.36,0.71 23.45,7.08 31.18,8.71 7.88,1.64 22.78,3.16 29.55,3.06 8.49,-0.17 24.31,-4.33 29.7,-4.56 4.1,-0.14 13.16,1.82 14.01,1.99 3.31,0.65 10.95,0.77 14.91,0.23 6.73,-0.94 19.14,-4.23 24.77,-6.42" />
    <path
       d="M618.00,39.00 C646.88,38.98 712.88,38.92 750.02,38.89 C756.24,38.89 766.27,38.88 770.07,38.87 C770.06,67.88 770.03,135.06 770.01,173.23 C770.01,179.83 770.00,191.71 770.00,197.00"
       fill="none"
       stroke="rgb(0, 0, 0)"
       stroke-width="20.00"
       stroke-opacity="1.00"
       stroke-linejoin="round"
       id="path11"
       style="stroke-width:12;stroke-dasharray:none;stroke-linecap:square;stroke-linejoin:miter" />
    <path
       d="M43.00,626.00 C42.99,655.91 42.96,721.13 42.94,756.44 C42.94,759.28 42.94,764.59 42.93,767.07 C72.54,767.05 138.24,767.02 174.32,767.01 C179.97,767.00 186.81,767.00 188.00,767.00"
       fill="none"
       stroke="rgb(0, 0, 0)"
       stroke-width="20.00"
       stroke-opacity="1.00"
       stroke-linejoin="round"
       id="path12"
       style="stroke-width:12;stroke-dasharray:none;stroke-linecap:square;stroke-linejoin:miter" />
  </g>
</svg>
